HIERARCHY
ROOT reference
{
  OFFSET 0 0 0
  CHANNELS 6 Xposition Yposition Zposition Zrotation Xrotation Yrotation
  JOINT Hips
  {
    OFFSET 8.83329 82.2226 -2.16208
    CHANNELS 6 Xposition Yposition Zposition Zrotation Xrotation Yrotation
    JOINT Spine
    {
      OFFSET 0 7.31558 0
      CHANNELS 6 Xposition Yposition Zposition Zrotation Xrotation Yrotation
      JOINT Spine1
      {
        OFFSET 0 21.7428 0
        CHANNELS 6 Xposition Yposition Zposition Zrotation Xrotation Yrotation
        JOINT Neck
        {
          OFFSET 0 21.6535 1.9685
          CHANNELS 6 Xposition Yposition Zposition Zrotation Xrotation Yrotation
          JOINT Head
          {
            OFFSET 0 12.49 -1.78429
            CHANNELS 6 Xposition Yposition Zposition Zrotation Xrotation Yrotation
            End Site
            {
              OFFSET 0 22.3036 0
            }
          }
        }
        JOINT LeftShoulder
        {
          OFFSET 3.56546 21.4407 -0.045508
          CHANNELS 6 Xposition Yposition Zposition Zrotation Xrotation Yrotation
          JOINT LeftArm
          {
            OFFSET 5.86532 0 0
            CHANNELS 6 Xposition Yposition Zposition Zrotation Xrotation Yrotation
            JOINT LeftForeArm
            {
              OFFSET 30.0831 0 0
              CHANNELS 6 Xposition Yposition Zposition Zrotation Xrotation Yrotation
              JOINT LeftHand
              {
                OFFSET 21.3133 0 0
                CHANNELS 6 Xposition Yposition Zposition Zrotation Xrotation Yrotation
                End Site
                {
                  OFFSET 13.3822 0 0
                }
              }
            }
          }
        }
        JOINT RightShoulder
        {
          OFFSET -3.55605 21.4407 -0.045508
          CHANNELS 6 Xposition Yposition Zposition Zrotation Xrotation Yrotation
          JOINT RightArm
          {
            OFFSET -5.86532 0 0
            CHANNELS 6 Xposition Yposition Zposition Zrotation Xrotation Yrotation
            JOINT RightForeArm
            {
              OFFSET -30.0831 0 0
              CHANNELS 6 Xposition Yposition Zposition Zrotation Xrotation Yrotation
              JOINT RightHand
              {
                OFFSET -21.3133 0 0
                CHANNELS 6 Xposition Yposition Zposition Zrotation Xrotation Yrotation
                End Site
                {
                  OFFSET -13.3822 0 0
                }
              }
            }
          }
        }
      }
    }
    JOINT LeftUpLeg
    {
      OFFSET 8.92144 0 0
      CHANNELS 6 Xposition Yposition Zposition Zrotation Xrotation Yrotation
      JOINT LeftLeg
      {
        OFFSET 0 -39.6329 0
        CHANNELS 6 Xposition Yposition Zposition Zrotation Xrotation Yrotation
        JOINT LeftFoot
        {
          OFFSET 0 -38.0584 0
          CHANNELS 6 Xposition Yposition Zposition Zrotation Xrotation Yrotation
          JOINT LeftToeBase
          {
            OFFSET 0 -5.79894 13.3822
            CHANNELS 6 Xposition Yposition Zposition Zrotation Xrotation Yrotation
            End Site
            {
              OFFSET 0 0 3.56858
            }
          }
        }
      }
    }
    JOINT RightUpLeg
    {
      OFFSET -8.92144 0 0
      CHANNELS 6 Xposition Yposition Zposition Zrotation Xrotation Yrotation
      JOINT RightLeg
      {
        OFFSET 0 -39.6329 0
        CHANNELS 6 Xposition Yposition Zposition Zrotation Xrotation Yrotation
        JOINT RightFoot
        {
          OFFSET 0 -38.0584 0
          CHANNELS 6 Xposition Yposition Zposition Zrotation Xrotation Yrotation
          JOINT RightToeBase
          {
            OFFSET 0 -5.79894 13.3822
            CHANNELS 6 Xposition Yposition Zposition Zrotation Xrotation Yrotation
            End Site
            {
              OFFSET 0 0 3.56858
            }
          }
        }
      }
    }
  }
}
MOTION
Frames:	5
Frame Time:	0.004
0 0 0 0 0 -0 -9.82461 77.8337 -124.266 -0.257744 -10.8085 8.10464 1.77636e-015 7.31558 1.42109e-014 1.2815 -2.89626 1.53247 0 21.7428 1.42109e-014 0.453908 12.3544 1.45096 1.77636e-015 21.6535 1.9685 -7.04326 25.4482 1.70027 0 12.49 -1.78429 -1.63438 -12.1081 0.740149 3.56546 21.4407 -0.045508 -9.07031 14.4456 -10.7174 5.86532 -1.42109e-014 -2.84217e-014 -30.0752 67.7694 -26.7078 30.0831 -1.42109e-014 0 22.1114 -12.4586 -36.1094 21.3133 0 1.77636e-015 6.82136 -4.62333 10.4009 -3.55605 21.4407 -0.045508 8.53688 14.8281 -0.262696 -5.86532 0 0 23.5414 67.3021 29.1316 -30.0831 -1.42109e-014 1.42109e-014 -4.54257 -17.6374 37.9291 -21.3133 -2.84217e-014 0 17.3577 -14.1847 13.2219 8.92144 -1.42109e-014 -1.42109e-014 16.8849 -18.656 13.4052 0 -39.6329 -2.13163e-014 -4.7253 23.5547 11.4196 1.42109e-014 -38.0584 0 -10.682 5.53202 -0.474394 0 -5.79894 13.3822 -7.95139e-016 1.59028e-015 -0 -8.92144 0 0 -2.25276 21.2169 -16.8539 -7.10543e-015 -39.6329 -2.84217e-014 3.6078 5.86826 -2.02618 0 -38.0584 -1.42109e-014 0.535439 -15.5146 -17.0361 0 -5.79894 13.3822 6.21202e-017 7.45443e-017 -9.54166e-015 
0 0 0 0 0 -0 -9.73369 77.7715 -123.888 -0.399558 -10.7527 7.54455 -1.77636e-015 7.31558 1.42109e-014 1.36141 -2.95945 1.55939 1.77636e-015 21.7428 0 0.482153 12.2663 1.47242 1.77636e-015 21.6535 1.9685 -7.05171 25.4911 1.88766 0 12.49 -1.78429 -1.86317 -12.1835 0.874009 3.56546 21.4407 -0.045508 -9.0599 14.4408 -10.6899 5.86532 0 0 -30.2973 67.7739 -26.5332 30.0831 0 0 21.759 -12.7627 -36.2191 21.3133 -7.10543e-015 -7.10543e-015 6.88592 -5.02238 10.4246 -3.55605 21.4407 -0.045508 8.43468 14.9541 -0.228842 -5.86532 1.42109e-014 0 23.452 67.3139 29.2283 -30.0831 1.42109e-014 0 -4.65373 -17.6593 38.0685 -21.3133 0 0 17.1076 -14.2582 12.7768 8.92144 0 1.42109e-014 16.8591 -18.4011 13.3261 7.10543e-015 -39.6329 7.10543e-015 -4.4592 22.0176 11.5608 0 -38.0584 -1.42109e-014 -10.7196 5.71045 -0.38928 0 -5.79894 13.3822 -1.59028e-015 7.95139e-016 3.18055e-015 -8.92144 1.42109e-014 1.42109e-014 -2.36208 21.3596 -16.6302 0 -39.6329 -2.84217e-014 3.60633 5.855 -1.91678 0 -38.0584 -1.42109e-014 0.738145 -15.648 -16.987 0 -5.79894 13.3822 2.48481e-016 -2.98177e-016 6.36111e-015 
0 0 0 0 0 -0 -9.63195 77.699 -123.491 -0.534958 -10.7455 6.96348 -1.77636e-015 7.31558 0 1.53224 -3.00452 1.59259 1.77636e-015 21.7428 -1.42109e-014 0.249119 12.2306 1.52577 1.77636e-015 21.6535 1.9685 -6.77786 25.467 2.08373 0 12.49 -1.78429 -2.19362 -12.2061 1.02257 3.56546 21.4407 -0.045508 -8.88079 14.4706 -10.6486 5.86532 0 2.84217e-014 -30.4819 67.7224 -26.4766 30.0831 -1.42109e-014 0 21.6949 -12.9273 -36.0298 21.3133 0 -1.77636e-015 6.33713 -5.33059 9.91766 -3.55605 21.4407 -0.045508 8.5595 14.8182 -0.129786 -5.86532 1.42109e-014 2.84217e-014 23.4903 67.5735 29.0428 -30.0831 0 0 -4.85544 -17.6055 38.0342 -21.3133 0 0 17.9036 -13.9902 13.1558 8.92144 1.42109e-014 1.42109e-014 16.8474 -18.072 13.2005 0 -39.6329 7.10543e-015 -4.23301 20.4753 11.7724 0 -38.0584 -1.42109e-014 -10.8206 5.62794 -0.169168 0 -5.79894 13.3822 1.59028e-015 0 -6.36111e-015 -8.92144 0 0 -2.49154 21.5703 -16.373 0 -39.6329 -1.42109e-014 3.60714 5.82624 -1.79378 0 -38.0584 1.42109e-014 0.937357 -15.7866 -16.9705 1.42109e-014 -5.79894 13.3822 1.61513e-016 -3.23025e-016 -0 
0 0 0 0 0 -0 -9.54004 77.6318 -123.106 -0.687576 -10.6794 6.42091 1.77636e-015 7.31558 1.42109e-014 1.69449 -3.07094 1.58598 0 21.7428 -1.42109e-014 0.100216 12.1497 1.52992 0 21.6535 1.9685 -6.73775 25.3875 2.29618 -7.10543e-015 12.49 -1.78429 -2.34308 -12.1521 1.21682 3.56546 21.4407 -0.045508 -8.78681 14.5113 -10.5569 5.86532 -1.42109e-014 0 -30.8799 67.1262 -26.0829 30.0831 0 0 21.0964 -12.5646 -36.3577 21.3133 7.10543e-015 0 5.90615 -5.1448 9.66126 -3.55605 21.4407 -0.045508 8.65588 14.9127 -0.091961 -5.86532 1.42109e-014 -2.84217e-014 23.29 67.4775 29.0918 -30.0831 0 1.42109e-014 -4.80416 -17.3713 38.1206 -21.3133 -1.42109e-014 -1.42109e-014 17.5575 -13.8804 12.6584 8.92144 0 0 16.8684 -17.8441 13.076 7.10543e-015 -39.6329 7.10543e-015 -4.03896 19.1206 11.9899 0 -38.0584 0 -10.5558 5.38249 -0.007028 0 -5.79894 13.3822 -7.95139e-016 0 -0 -8.92144 0 -1.42109e-014 -2.55308 21.7549 -16.3138 -7.10543e-015 -39.6329 -1.42109e-014 3.5367 5.70271 -1.64636 0 -38.0584 -1.42109e-014 1.17213 -15.85 -16.8189 0 -5.79894 13.3822 -9.31803e-017 -3.10601e-016 -3.18055e-015 
0 0 0 0 0 -0 -9.45139 77.5643 -122.723 -0.853623 -10.6313 5.87718 0 7.31558 -1.42109e-014 1.77825 -3.16601 1.59462 0 21.7428 -1.42109e-014 0.156559 12.1232 1.52888 -1.77636e-015 21.6535 1.9685 -6.81143 25.4507 2.51068 3.55271e-015 12.49 -1.78429 -2.4799 -12.3324 1.3918 3.56546 21.4407 -0.045508 -8.81942 14.4904 -10.5436 5.86532 -1.42109e-014 0 -31.1439 67.1493 -25.8467 30.0831 1.42109e-014 0 20.7611 -12.8575 -36.3887 21.3133 7.10543e-015 -1.77636e-015 6.34217 -5.51402 9.66926 -3.55605 21.4407 -0.045508 8.58989 14.8759 -0.011078 -5.86532 1.42109e-014 0 23.3083 67.6686 29.0061 -30.0831 -1.42109e-014 0 -5.02517 -17.3145 38.126 -21.3133 0 7.10543e-015 17.6151 -13.7609 12.5324 8.92144 0 0 16.9375 -17.5659 12.8845 0 -39.6329 -7.10543e-015 -3.93296 17.7242 12.2507 1.42109e-014 -38.0584 2.84217e-014 -10.8433 5.24779 0.321267 0 -5.79894 13.3822 -7.95139e-016 1.59028e-015 -0 -8.92144 0 0 -2.7028 21.9286 -15.7901 0 -39.6329 -1.42109e-014 3.68109 5.69953 -1.41726 0 -38.0584 -1.42109e-014 1.31131 -15.9786 -17.2216 1.42109e-014 -5.79894 13.3822 -3.38555e-016 -3.10601e-017 -6.36111e-015 
